<mxfile host="app.diagrams.net" agent="Mozilla/5.0 (Windows NT 10.0; Win64; x64) AppleWebKit/537.36 (KHTML, like Gecko) Chrome/126.0.0.0 Safari/537.36" version="24.7.4">
  <diagram name="Page-1" id="25-nLJGA_09aTyiuVGBG">
    <mxGraphModel dx="768" dy="467" grid="1" gridSize="10" guides="1" tooltips="1" connect="1" arrows="1" fold="1" page="1" pageScale="1" pageWidth="850" pageHeight="1100" math="0" shadow="0">
      <root>
        <mxCell id="0" />
        <mxCell id="1" parent="0" />
        <mxCell id="ju7bBA22LbFhTa2Vyhii-4" value="alamat" style="ellipse;whiteSpace=wrap;html=1;align=center;" vertex="1" parent="1">
          <mxGeometry x="117" y="430" width="80" height="50" as="geometry" />
        </mxCell>
        <mxCell id="ju7bBA22LbFhTa2Vyhii-6" value="nama_depan" style="ellipse;whiteSpace=wrap;html=1;align=center;" vertex="1" parent="1">
          <mxGeometry x="157" y="200" width="100" height="40" as="geometry" />
        </mxCell>
        <mxCell id="ju7bBA22LbFhTa2Vyhii-7" value="nim" style="ellipse;whiteSpace=wrap;html=1;align=center;fontStyle=4;" vertex="1" parent="1">
          <mxGeometry x="107" y="290" width="90" height="50" as="geometry" />
        </mxCell>
        <mxCell id="ju7bBA22LbFhTa2Vyhii-8" value="nama_tengah" style="ellipse;whiteSpace=wrap;html=1;align=center;" vertex="1" parent="1">
          <mxGeometry x="262" y="160" width="100" height="40" as="geometry" />
        </mxCell>
        <mxCell id="ju7bBA22LbFhTa2Vyhii-9" value="nama_belakang" style="ellipse;whiteSpace=wrap;html=1;align=center;" vertex="1" parent="1">
          <mxGeometry x="372" y="200" width="100" height="40" as="geometry" />
        </mxCell>
        <mxCell id="ju7bBA22LbFhTa2Vyhii-10" value="jurusan" style="ellipse;whiteSpace=wrap;html=1;align=center;" vertex="1" parent="1">
          <mxGeometry x="62" y="360" width="100" height="40" as="geometry" />
        </mxCell>
        <mxCell id="ju7bBA22LbFhTa2Vyhii-11" value="" style="endArrow=none;html=1;rounded=0;entryX=0;entryY=0.5;entryDx=0;entryDy=0;exitX=0.967;exitY=0.7;exitDx=0;exitDy=0;exitPerimeter=0;" edge="1" parent="1" source="ju7bBA22LbFhTa2Vyhii-7" target="ju7bBA22LbFhTa2Vyhii-12">
          <mxGeometry relative="1" as="geometry">
            <mxPoint x="337" y="500" as="sourcePoint" />
            <mxPoint x="217" y="340" as="targetPoint" />
          </mxGeometry>
        </mxCell>
        <mxCell id="ju7bBA22LbFhTa2Vyhii-12" value="Mahasiswa" style="rounded=1;arcSize=10;whiteSpace=wrap;html=1;align=center;" vertex="1" parent="1">
          <mxGeometry x="257" y="345" width="110" height="70" as="geometry" />
        </mxCell>
        <mxCell id="ju7bBA22LbFhTa2Vyhii-13" value="" style="endArrow=none;html=1;rounded=0;entryX=0;entryY=0.5;entryDx=0;entryDy=0;exitX=1;exitY=0.5;exitDx=0;exitDy=0;" edge="1" parent="1" source="ju7bBA22LbFhTa2Vyhii-10" target="ju7bBA22LbFhTa2Vyhii-12">
          <mxGeometry relative="1" as="geometry">
            <mxPoint x="169" y="325" as="sourcePoint" />
            <mxPoint x="277" y="380" as="targetPoint" />
          </mxGeometry>
        </mxCell>
        <mxCell id="ju7bBA22LbFhTa2Vyhii-14" value="" style="endArrow=none;html=1;rounded=0;exitX=1;exitY=0.5;exitDx=0;exitDy=0;entryX=0;entryY=0.5;entryDx=0;entryDy=0;" edge="1" parent="1" source="ju7bBA22LbFhTa2Vyhii-4" target="ju7bBA22LbFhTa2Vyhii-12">
          <mxGeometry relative="1" as="geometry">
            <mxPoint x="177" y="390" as="sourcePoint" />
            <mxPoint x="277" y="370" as="targetPoint" />
          </mxGeometry>
        </mxCell>
        <mxCell id="ju7bBA22LbFhTa2Vyhii-15" value="nama" style="ellipse;whiteSpace=wrap;html=1;align=center;" vertex="1" parent="1">
          <mxGeometry x="262" y="270" width="100" height="40" as="geometry" />
        </mxCell>
        <mxCell id="ju7bBA22LbFhTa2Vyhii-16" value="jurusan" style="ellipse;whiteSpace=wrap;html=1;align=center;" vertex="1" parent="1">
          <mxGeometry x="497" y="190" width="80" height="50" as="geometry" />
        </mxCell>
        <mxCell id="ju7bBA22LbFhTa2Vyhii-17" value="alamat" style="ellipse;whiteSpace=wrap;html=1;align=center;" vertex="1" parent="1">
          <mxGeometry x="437" y="290" width="100" height="40" as="geometry" />
        </mxCell>
        <mxCell id="ju7bBA22LbFhTa2Vyhii-18" value="nama" style="ellipse;whiteSpace=wrap;html=1;align=center;" vertex="1" parent="1">
          <mxGeometry x="627" y="290" width="100" height="40" as="geometry" />
        </mxCell>
        <mxCell id="ju7bBA22LbFhTa2Vyhii-19" value="mendaftar" style="shape=rhombus;perimeter=rhombusPerimeter;whiteSpace=wrap;html=1;align=center;" vertex="1" parent="1">
          <mxGeometry x="517" y="350" width="120" height="60" as="geometry" />
        </mxCell>
        <mxCell id="ju7bBA22LbFhTa2Vyhii-20" value="" style="endArrow=none;html=1;rounded=0;exitX=1;exitY=1;exitDx=0;exitDy=0;entryX=0.5;entryY=0;entryDx=0;entryDy=0;" edge="1" parent="1" source="ju7bBA22LbFhTa2Vyhii-6" target="ju7bBA22LbFhTa2Vyhii-15">
          <mxGeometry relative="1" as="geometry">
            <mxPoint x="207" y="360" as="sourcePoint" />
            <mxPoint x="367" y="360" as="targetPoint" />
          </mxGeometry>
        </mxCell>
        <mxCell id="ju7bBA22LbFhTa2Vyhii-21" value="" style="endArrow=none;html=1;rounded=0;exitX=0.5;exitY=0;exitDx=0;exitDy=0;entryX=0.5;entryY=1;entryDx=0;entryDy=0;" edge="1" parent="1" source="ju7bBA22LbFhTa2Vyhii-15" target="ju7bBA22LbFhTa2Vyhii-8">
          <mxGeometry relative="1" as="geometry">
            <mxPoint x="252" y="244" as="sourcePoint" />
            <mxPoint x="322" y="280" as="targetPoint" />
          </mxGeometry>
        </mxCell>
        <mxCell id="ju7bBA22LbFhTa2Vyhii-22" value="" style="endArrow=none;html=1;rounded=0;exitX=0.5;exitY=0;exitDx=0;exitDy=0;entryX=0;entryY=1;entryDx=0;entryDy=0;" edge="1" parent="1" source="ju7bBA22LbFhTa2Vyhii-15" target="ju7bBA22LbFhTa2Vyhii-9">
          <mxGeometry relative="1" as="geometry">
            <mxPoint x="322" y="280" as="sourcePoint" />
            <mxPoint x="322" y="210" as="targetPoint" />
          </mxGeometry>
        </mxCell>
        <mxCell id="ju7bBA22LbFhTa2Vyhii-24" value="" style="endArrow=none;html=1;rounded=0;entryX=0.5;entryY=0;entryDx=0;entryDy=0;exitX=0.5;exitY=1;exitDx=0;exitDy=0;" edge="1" parent="1" source="ju7bBA22LbFhTa2Vyhii-15" target="ju7bBA22LbFhTa2Vyhii-12">
          <mxGeometry relative="1" as="geometry">
            <mxPoint x="317" y="320" as="sourcePoint" />
            <mxPoint x="322" y="210" as="targetPoint" />
          </mxGeometry>
        </mxCell>
        <mxCell id="ju7bBA22LbFhTa2Vyhii-25" value="nim" style="ellipse;whiteSpace=wrap;html=1;align=center;fontStyle=4;" vertex="1" parent="1">
          <mxGeometry x="597" y="190" width="90" height="50" as="geometry" />
        </mxCell>
        <mxCell id="ju7bBA22LbFhTa2Vyhii-27" value="" style="endArrow=none;html=1;rounded=0;exitX=1;exitY=0.5;exitDx=0;exitDy=0;entryX=0;entryY=0.5;entryDx=0;entryDy=0;" edge="1" parent="1" source="ju7bBA22LbFhTa2Vyhii-12" target="ju7bBA22LbFhTa2Vyhii-19">
          <mxGeometry relative="1" as="geometry">
            <mxPoint x="407" y="370" as="sourcePoint" />
            <mxPoint x="607" y="340" as="targetPoint" />
          </mxGeometry>
        </mxCell>
        <mxCell id="ju7bBA22LbFhTa2Vyhii-76" value="Many" style="edgeLabel;html=1;align=center;verticalAlign=middle;resizable=0;points=[];" vertex="1" connectable="0" parent="ju7bBA22LbFhTa2Vyhii-27">
          <mxGeometry x="-0.5296" y="-2" relative="1" as="geometry">
            <mxPoint x="38" y="8" as="offset" />
          </mxGeometry>
        </mxCell>
        <mxCell id="ju7bBA22LbFhTa2Vyhii-28" value="" style="endArrow=none;html=1;rounded=0;exitX=1;exitY=0.5;exitDx=0;exitDy=0;entryX=0.5;entryY=0;entryDx=0;entryDy=0;" edge="1" parent="1" source="ju7bBA22LbFhTa2Vyhii-17" target="ju7bBA22LbFhTa2Vyhii-19">
          <mxGeometry relative="1" as="geometry">
            <mxPoint x="377" y="390" as="sourcePoint" />
            <mxPoint x="527" y="390" as="targetPoint" />
          </mxGeometry>
        </mxCell>
        <mxCell id="ju7bBA22LbFhTa2Vyhii-29" value="" style="endArrow=none;html=1;rounded=0;entryX=0.5;entryY=0;entryDx=0;entryDy=0;exitX=0;exitY=0.5;exitDx=0;exitDy=0;" edge="1" parent="1" source="ju7bBA22LbFhTa2Vyhii-18" target="ju7bBA22LbFhTa2Vyhii-19">
          <mxGeometry relative="1" as="geometry">
            <mxPoint x="597" y="310" as="sourcePoint" />
            <mxPoint x="587" y="360" as="targetPoint" />
          </mxGeometry>
        </mxCell>
        <mxCell id="ju7bBA22LbFhTa2Vyhii-30" value="" style="endArrow=none;html=1;rounded=0;entryX=0.5;entryY=0;entryDx=0;entryDy=0;exitX=0.5;exitY=1;exitDx=0;exitDy=0;" edge="1" parent="1" source="ju7bBA22LbFhTa2Vyhii-25" target="ju7bBA22LbFhTa2Vyhii-19">
          <mxGeometry relative="1" as="geometry">
            <mxPoint x="627" y="320" as="sourcePoint" />
            <mxPoint x="587" y="360" as="targetPoint" />
          </mxGeometry>
        </mxCell>
        <mxCell id="ju7bBA22LbFhTa2Vyhii-31" value="" style="endArrow=none;html=1;rounded=0;entryX=0.5;entryY=0;entryDx=0;entryDy=0;exitX=0.5;exitY=1;exitDx=0;exitDy=0;" edge="1" parent="1" source="ju7bBA22LbFhTa2Vyhii-16" target="ju7bBA22LbFhTa2Vyhii-19">
          <mxGeometry relative="1" as="geometry">
            <mxPoint x="652" y="250" as="sourcePoint" />
            <mxPoint x="587" y="360" as="targetPoint" />
          </mxGeometry>
        </mxCell>
        <mxCell id="ju7bBA22LbFhTa2Vyhii-32" value="nomor-anggota" style="ellipse;whiteSpace=wrap;html=1;align=center;fontStyle=4;" vertex="1" parent="1">
          <mxGeometry x="397" y="540" width="100" height="40" as="geometry" />
        </mxCell>
        <mxCell id="ju7bBA22LbFhTa2Vyhii-33" value="nama" style="ellipse;whiteSpace=wrap;html=1;align=center;" vertex="1" parent="1">
          <mxGeometry x="397" y="440" width="100" height="40" as="geometry" />
        </mxCell>
        <mxCell id="ju7bBA22LbFhTa2Vyhii-34" value="jurusan" style="ellipse;whiteSpace=wrap;html=1;align=center;" vertex="1" parent="1">
          <mxGeometry x="670" y="435" width="80" height="50" as="geometry" />
        </mxCell>
        <mxCell id="ju7bBA22LbFhTa2Vyhii-35" value="masa berlaku" style="ellipse;whiteSpace=wrap;html=1;align=center;" vertex="1" parent="1">
          <mxGeometry x="670" y="540" width="100" height="40" as="geometry" />
        </mxCell>
        <mxCell id="ju7bBA22LbFhTa2Vyhii-36" value="Anggota perpustakaan" style="rounded=1;arcSize=10;whiteSpace=wrap;html=1;align=center;" vertex="1" parent="1">
          <mxGeometry x="517" y="480" width="120" height="60" as="geometry" />
        </mxCell>
        <mxCell id="ju7bBA22LbFhTa2Vyhii-38" value="" style="endArrow=none;html=1;rounded=0;entryX=0.5;entryY=1;entryDx=0;entryDy=0;exitX=0.5;exitY=0;exitDx=0;exitDy=0;" edge="1" parent="1" source="ju7bBA22LbFhTa2Vyhii-36" target="ju7bBA22LbFhTa2Vyhii-19">
          <mxGeometry relative="1" as="geometry">
            <mxPoint x="320" y="460" as="sourcePoint" />
            <mxPoint x="480" y="460" as="targetPoint" />
          </mxGeometry>
        </mxCell>
        <mxCell id="ju7bBA22LbFhTa2Vyhii-77" value="Many" style="edgeLabel;html=1;align=center;verticalAlign=middle;resizable=0;points=[];" vertex="1" connectable="0" parent="ju7bBA22LbFhTa2Vyhii-38">
          <mxGeometry x="0.1587" y="-1" relative="1" as="geometry">
            <mxPoint as="offset" />
          </mxGeometry>
        </mxCell>
        <mxCell id="ju7bBA22LbFhTa2Vyhii-39" value="" style="endArrow=none;html=1;rounded=0;entryX=0;entryY=0.5;entryDx=0;entryDy=0;exitX=0.5;exitY=1;exitDx=0;exitDy=0;" edge="1" parent="1" source="ju7bBA22LbFhTa2Vyhii-33" target="ju7bBA22LbFhTa2Vyhii-36">
          <mxGeometry relative="1" as="geometry">
            <mxPoint x="450" y="490" as="sourcePoint" />
            <mxPoint x="540" y="450" as="targetPoint" />
          </mxGeometry>
        </mxCell>
        <mxCell id="ju7bBA22LbFhTa2Vyhii-40" value="" style="endArrow=none;html=1;rounded=0;entryX=0;entryY=0.5;entryDx=0;entryDy=0;exitX=0.5;exitY=0;exitDx=0;exitDy=0;" edge="1" parent="1" source="ju7bBA22LbFhTa2Vyhii-32" target="ju7bBA22LbFhTa2Vyhii-36">
          <mxGeometry relative="1" as="geometry">
            <mxPoint x="457" y="490" as="sourcePoint" />
            <mxPoint x="527" y="520" as="targetPoint" />
          </mxGeometry>
        </mxCell>
        <mxCell id="ju7bBA22LbFhTa2Vyhii-41" value="" style="endArrow=none;html=1;rounded=0;exitX=1;exitY=0.5;exitDx=0;exitDy=0;entryX=0.5;entryY=1;entryDx=0;entryDy=0;" edge="1" parent="1" source="ju7bBA22LbFhTa2Vyhii-36" target="ju7bBA22LbFhTa2Vyhii-34">
          <mxGeometry relative="1" as="geometry">
            <mxPoint x="530" y="430" as="sourcePoint" />
            <mxPoint x="690" y="430" as="targetPoint" />
          </mxGeometry>
        </mxCell>
        <mxCell id="ju7bBA22LbFhTa2Vyhii-42" value="" style="endArrow=none;html=1;rounded=0;exitX=1;exitY=0.5;exitDx=0;exitDy=0;entryX=0.5;entryY=0;entryDx=0;entryDy=0;" edge="1" parent="1" source="ju7bBA22LbFhTa2Vyhii-36" target="ju7bBA22LbFhTa2Vyhii-35">
          <mxGeometry relative="1" as="geometry">
            <mxPoint x="647" y="520" as="sourcePoint" />
            <mxPoint x="720" y="495" as="targetPoint" />
          </mxGeometry>
        </mxCell>
        <mxCell id="ju7bBA22LbFhTa2Vyhii-44" value="Memminjam" style="shape=rhombus;perimeter=rhombusPerimeter;whiteSpace=wrap;html=1;align=center;" vertex="1" parent="1">
          <mxGeometry x="517" y="670" width="120" height="60" as="geometry" />
        </mxCell>
        <mxCell id="ju7bBA22LbFhTa2Vyhii-45" value="tanggal_pinjam" style="ellipse;whiteSpace=wrap;html=1;align=center;" vertex="1" parent="1">
          <mxGeometry x="380" y="740" width="100" height="40" as="geometry" />
        </mxCell>
        <mxCell id="ju7bBA22LbFhTa2Vyhii-48" value="denda" style="ellipse;whiteSpace=wrap;html=1;align=center;" vertex="1" parent="1">
          <mxGeometry x="650" y="780" width="100" height="40" as="geometry" />
        </mxCell>
        <mxCell id="ju7bBA22LbFhTa2Vyhii-49" value="tanggal_kembali" style="ellipse;whiteSpace=wrap;html=1;align=center;" vertex="1" parent="1">
          <mxGeometry x="362" y="690" width="100" height="40" as="geometry" />
        </mxCell>
        <mxCell id="ju7bBA22LbFhTa2Vyhii-50" value="kode_peminjaman" style="ellipse;whiteSpace=wrap;html=1;align=center;" vertex="1" parent="1">
          <mxGeometry x="380" y="620" width="110" height="40" as="geometry" />
        </mxCell>
        <mxCell id="ju7bBA22LbFhTa2Vyhii-51" value="nomor-anggota" style="ellipse;whiteSpace=wrap;html=1;align=center;fontStyle=4;" vertex="1" parent="1">
          <mxGeometry x="670" y="630" width="100" height="40" as="geometry" />
        </mxCell>
        <mxCell id="ju7bBA22LbFhTa2Vyhii-52" value="nomor-buku" style="ellipse;whiteSpace=wrap;html=1;align=center;fontStyle=4;" vertex="1" parent="1">
          <mxGeometry x="710" y="680" width="100" height="40" as="geometry" />
        </mxCell>
        <mxCell id="ju7bBA22LbFhTa2Vyhii-53" value="judul_buku" style="ellipse;whiteSpace=wrap;html=1;align=center;" vertex="1" parent="1">
          <mxGeometry x="700" y="730" width="100" height="40" as="geometry" />
        </mxCell>
        <mxCell id="ju7bBA22LbFhTa2Vyhii-54" value="" style="endArrow=none;html=1;rounded=0;exitX=0.5;exitY=1;exitDx=0;exitDy=0;entryX=0.5;entryY=0;entryDx=0;entryDy=0;" edge="1" parent="1" source="ju7bBA22LbFhTa2Vyhii-36" target="ju7bBA22LbFhTa2Vyhii-44">
          <mxGeometry relative="1" as="geometry">
            <mxPoint x="570" y="690" as="sourcePoint" />
            <mxPoint x="730" y="690" as="targetPoint" />
          </mxGeometry>
        </mxCell>
        <mxCell id="ju7bBA22LbFhTa2Vyhii-78" value="1" style="edgeLabel;html=1;align=center;verticalAlign=middle;resizable=0;points=[];" vertex="1" connectable="0" parent="ju7bBA22LbFhTa2Vyhii-54">
          <mxGeometry x="-0.1644" y="-1" relative="1" as="geometry">
            <mxPoint x="1" y="-34" as="offset" />
          </mxGeometry>
        </mxCell>
        <mxCell id="ju7bBA22LbFhTa2Vyhii-55" value="" style="endArrow=none;html=1;rounded=0;exitX=0.5;exitY=1;exitDx=0;exitDy=0;entryX=1;entryY=0.5;entryDx=0;entryDy=0;" edge="1" parent="1" source="ju7bBA22LbFhTa2Vyhii-51" target="ju7bBA22LbFhTa2Vyhii-44">
          <mxGeometry relative="1" as="geometry">
            <mxPoint x="587" y="550" as="sourcePoint" />
            <mxPoint x="587" y="680" as="targetPoint" />
          </mxGeometry>
        </mxCell>
        <mxCell id="ju7bBA22LbFhTa2Vyhii-56" value="" style="endArrow=none;html=1;rounded=0;exitX=0;exitY=0.5;exitDx=0;exitDy=0;entryX=1;entryY=0.5;entryDx=0;entryDy=0;" edge="1" parent="1" source="ju7bBA22LbFhTa2Vyhii-52" target="ju7bBA22LbFhTa2Vyhii-44">
          <mxGeometry relative="1" as="geometry">
            <mxPoint x="680" y="670" as="sourcePoint" />
            <mxPoint x="647" y="710" as="targetPoint" />
          </mxGeometry>
        </mxCell>
        <mxCell id="ju7bBA22LbFhTa2Vyhii-57" value="" style="endArrow=none;html=1;rounded=0;exitX=0;exitY=0.5;exitDx=0;exitDy=0;entryX=1;entryY=0.5;entryDx=0;entryDy=0;" edge="1" parent="1" source="ju7bBA22LbFhTa2Vyhii-53" target="ju7bBA22LbFhTa2Vyhii-44">
          <mxGeometry relative="1" as="geometry">
            <mxPoint x="720" y="710" as="sourcePoint" />
            <mxPoint x="647" y="710" as="targetPoint" />
          </mxGeometry>
        </mxCell>
        <mxCell id="ju7bBA22LbFhTa2Vyhii-58" value="" style="endArrow=none;html=1;rounded=0;exitX=0.5;exitY=0;exitDx=0;exitDy=0;entryX=1;entryY=0.5;entryDx=0;entryDy=0;" edge="1" parent="1" source="ju7bBA22LbFhTa2Vyhii-48" target="ju7bBA22LbFhTa2Vyhii-44">
          <mxGeometry relative="1" as="geometry">
            <mxPoint x="710" y="760" as="sourcePoint" />
            <mxPoint x="647" y="710" as="targetPoint" />
          </mxGeometry>
        </mxCell>
        <mxCell id="ju7bBA22LbFhTa2Vyhii-59" value="" style="endArrow=none;html=1;rounded=0;exitX=0.5;exitY=1;exitDx=0;exitDy=0;entryX=0;entryY=0.5;entryDx=0;entryDy=0;" edge="1" parent="1" source="ju7bBA22LbFhTa2Vyhii-50" target="ju7bBA22LbFhTa2Vyhii-44">
          <mxGeometry relative="1" as="geometry">
            <mxPoint x="587" y="550" as="sourcePoint" />
            <mxPoint x="587" y="680" as="targetPoint" />
          </mxGeometry>
        </mxCell>
        <mxCell id="ju7bBA22LbFhTa2Vyhii-60" value="" style="endArrow=none;html=1;rounded=0;exitX=1;exitY=0.5;exitDx=0;exitDy=0;entryX=0;entryY=0.5;entryDx=0;entryDy=0;" edge="1" parent="1" source="ju7bBA22LbFhTa2Vyhii-49" target="ju7bBA22LbFhTa2Vyhii-44">
          <mxGeometry relative="1" as="geometry">
            <mxPoint x="490" y="670" as="sourcePoint" />
            <mxPoint x="527" y="710" as="targetPoint" />
          </mxGeometry>
        </mxCell>
        <mxCell id="ju7bBA22LbFhTa2Vyhii-61" value="" style="endArrow=none;html=1;rounded=0;exitX=0.5;exitY=0;exitDx=0;exitDy=0;entryX=0;entryY=0.5;entryDx=0;entryDy=0;" edge="1" parent="1" source="ju7bBA22LbFhTa2Vyhii-45" target="ju7bBA22LbFhTa2Vyhii-44">
          <mxGeometry relative="1" as="geometry">
            <mxPoint x="472" y="720" as="sourcePoint" />
            <mxPoint x="527" y="710" as="targetPoint" />
          </mxGeometry>
        </mxCell>
        <mxCell id="ju7bBA22LbFhTa2Vyhii-62" value="Buku" style="rounded=1;arcSize=10;whiteSpace=wrap;html=1;align=center;" vertex="1" parent="1">
          <mxGeometry x="518.5" y="850" width="117" height="60" as="geometry" />
        </mxCell>
        <mxCell id="ju7bBA22LbFhTa2Vyhii-63" value="judul_buku" style="ellipse;whiteSpace=wrap;html=1;align=center;" vertex="1" parent="1">
          <mxGeometry x="385" y="920" width="100" height="40" as="geometry" />
        </mxCell>
        <mxCell id="ju7bBA22LbFhTa2Vyhii-64" value="nomor-buku" style="ellipse;whiteSpace=wrap;html=1;align=center;fontStyle=4;" vertex="1" parent="1">
          <mxGeometry x="397" y="990" width="100" height="40" as="geometry" />
        </mxCell>
        <mxCell id="ju7bBA22LbFhTa2Vyhii-65" value="tahun_terbit" style="ellipse;whiteSpace=wrap;html=1;align=center;" vertex="1" parent="1">
          <mxGeometry x="437" y="1050" width="100" height="40" as="geometry" />
        </mxCell>
        <mxCell id="ju7bBA22LbFhTa2Vyhii-66" value="pengarang" style="ellipse;whiteSpace=wrap;html=1;align=center;" vertex="1" parent="1">
          <mxGeometry x="650" y="920" width="100" height="40" as="geometry" />
        </mxCell>
        <mxCell id="ju7bBA22LbFhTa2Vyhii-67" value="jenis_buku" style="ellipse;whiteSpace=wrap;html=1;align=center;" vertex="1" parent="1">
          <mxGeometry x="635.5" y="990" width="100" height="40" as="geometry" />
        </mxCell>
        <mxCell id="ju7bBA22LbFhTa2Vyhii-68" value="penerbit" style="ellipse;whiteSpace=wrap;html=1;align=center;" vertex="1" parent="1">
          <mxGeometry x="577" y="1050" width="100" height="40" as="geometry" />
        </mxCell>
        <mxCell id="ju7bBA22LbFhTa2Vyhii-69" value="" style="endArrow=none;html=1;rounded=0;exitX=1;exitY=0.5;exitDx=0;exitDy=0;entryX=0.5;entryY=1;entryDx=0;entryDy=0;" edge="1" parent="1" source="ju7bBA22LbFhTa2Vyhii-63" target="ju7bBA22LbFhTa2Vyhii-62">
          <mxGeometry relative="1" as="geometry">
            <mxPoint x="410" y="910" as="sourcePoint" />
            <mxPoint x="580" y="920" as="targetPoint" />
          </mxGeometry>
        </mxCell>
        <mxCell id="ju7bBA22LbFhTa2Vyhii-70" value="" style="endArrow=none;html=1;rounded=0;exitX=1;exitY=0;exitDx=0;exitDy=0;entryX=0.5;entryY=1;entryDx=0;entryDy=0;" edge="1" parent="1" source="ju7bBA22LbFhTa2Vyhii-64" target="ju7bBA22LbFhTa2Vyhii-62">
          <mxGeometry relative="1" as="geometry">
            <mxPoint x="495" y="950" as="sourcePoint" />
            <mxPoint x="587" y="920" as="targetPoint" />
          </mxGeometry>
        </mxCell>
        <mxCell id="ju7bBA22LbFhTa2Vyhii-71" value="" style="endArrow=none;html=1;rounded=0;exitX=1;exitY=0;exitDx=0;exitDy=0;entryX=0.5;entryY=1;entryDx=0;entryDy=0;" edge="1" parent="1" source="ju7bBA22LbFhTa2Vyhii-65" target="ju7bBA22LbFhTa2Vyhii-62">
          <mxGeometry relative="1" as="geometry">
            <mxPoint x="492" y="1006" as="sourcePoint" />
            <mxPoint x="587" y="920" as="targetPoint" />
          </mxGeometry>
        </mxCell>
        <mxCell id="ju7bBA22LbFhTa2Vyhii-72" value="" style="endArrow=none;html=1;rounded=0;exitX=0;exitY=0;exitDx=0;exitDy=0;entryX=0.5;entryY=1;entryDx=0;entryDy=0;" edge="1" parent="1" source="ju7bBA22LbFhTa2Vyhii-68" target="ju7bBA22LbFhTa2Vyhii-62">
          <mxGeometry relative="1" as="geometry">
            <mxPoint x="532" y="1066" as="sourcePoint" />
            <mxPoint x="587" y="920" as="targetPoint" />
          </mxGeometry>
        </mxCell>
        <mxCell id="ju7bBA22LbFhTa2Vyhii-73" value="" style="endArrow=none;html=1;rounded=0;exitX=0;exitY=0;exitDx=0;exitDy=0;entryX=0.5;entryY=1;entryDx=0;entryDy=0;" edge="1" parent="1" source="ju7bBA22LbFhTa2Vyhii-67" target="ju7bBA22LbFhTa2Vyhii-62">
          <mxGeometry relative="1" as="geometry">
            <mxPoint x="602" y="1066" as="sourcePoint" />
            <mxPoint x="577" y="910" as="targetPoint" />
          </mxGeometry>
        </mxCell>
        <mxCell id="ju7bBA22LbFhTa2Vyhii-74" value="" style="endArrow=none;html=1;rounded=0;exitX=0;exitY=0.5;exitDx=0;exitDy=0;entryX=0.5;entryY=1;entryDx=0;entryDy=0;" edge="1" parent="1" source="ju7bBA22LbFhTa2Vyhii-66" target="ju7bBA22LbFhTa2Vyhii-62">
          <mxGeometry relative="1" as="geometry">
            <mxPoint x="660" y="1006" as="sourcePoint" />
            <mxPoint x="587" y="920" as="targetPoint" />
          </mxGeometry>
        </mxCell>
        <mxCell id="ju7bBA22LbFhTa2Vyhii-75" value="" style="endArrow=none;html=1;rounded=0;exitX=0.5;exitY=1;exitDx=0;exitDy=0;entryX=0.5;entryY=0;entryDx=0;entryDy=0;" edge="1" parent="1" source="ju7bBA22LbFhTa2Vyhii-44" target="ju7bBA22LbFhTa2Vyhii-62">
          <mxGeometry relative="1" as="geometry">
            <mxPoint x="460" y="870" as="sourcePoint" />
            <mxPoint x="620" y="870" as="targetPoint" />
          </mxGeometry>
        </mxCell>
        <mxCell id="ju7bBA22LbFhTa2Vyhii-79" value="Many" style="edgeLabel;html=1;align=center;verticalAlign=middle;resizable=0;points=[];" vertex="1" connectable="0" parent="ju7bBA22LbFhTa2Vyhii-75">
          <mxGeometry x="-0.2947" y="1" relative="1" as="geometry">
            <mxPoint as="offset" />
          </mxGeometry>
        </mxCell>
      </root>
    </mxGraphModel>
  </diagram>
</mxfile>
